# Blender v2.69 (sub 0) OBJ File: 'ice10.blend'
# www.blender.org
o Cylinder_Cylinder.001
v 0.000000 -0.050000 -10.000000
v 0.000000 0.050000 -10.000000
v 1.950903 -0.050000 -9.807853
v 1.950903 0.050000 -9.807853
v 3.826835 -0.050000 -9.238795
v 3.826835 0.050000 -9.238795
v 5.555702 -0.050000 -8.314696
v 5.555702 0.050000 -8.314696
v 7.071068 -0.050000 -7.071068
v 7.071068 0.050000 -7.071068
v 8.314696 -0.050000 -5.555702
v 8.314696 0.050000 -5.555702
v 9.238795 -0.050000 -3.826834
v 9.238795 0.050000 -3.826834
v 9.807853 -0.050000 -1.950904
v 9.807853 0.050000 -1.950904
v 10.000000 -0.050000 -0.000001
v 10.000000 0.050000 -0.000001
v 9.807853 -0.050000 1.950902
v 9.807853 0.050000 1.950902
v 9.238795 -0.050000 3.826833
v 9.238795 0.050000 3.826833
v 8.314696 -0.050000 5.555702
v 8.314696 0.050000 5.555702
v 7.071068 -0.050000 7.071068
v 7.071068 0.050000 7.071068
v 5.555702 -0.050000 8.314696
v 5.555702 0.050000 8.314696
v 3.826833 -0.050000 9.238796
v 3.826833 0.050000 9.238796
v 1.950901 -0.050000 9.807853
v 1.950901 0.050000 9.807853
v -0.000003 -0.050000 10.000000
v -0.000003 0.050000 10.000000
v -1.950907 -0.050000 9.807852
v -1.950907 0.050000 9.807852
v -3.826839 -0.050000 9.238793
v -3.826839 0.050000 9.238793
v -5.555707 -0.050000 8.314693
v -5.555707 0.050000 8.314693
v -7.071073 -0.050000 7.071064
v -7.071073 0.050000 7.071064
v -8.314700 -0.050000 5.555696
v -8.314700 0.050000 5.555696
v -9.238798 -0.050000 3.826827
v -9.238798 0.050000 3.826827
v -9.807855 -0.050000 1.950895
v -9.807855 0.050000 1.950895
v -9.999999 -0.050000 -0.000010
v -9.999999 0.050000 -0.000010
v -9.807851 -0.050000 -1.950914
v -9.807851 0.050000 -1.950914
v -9.238791 -0.050000 -3.826845
v -9.238791 0.050000 -3.826845
v -8.314690 -0.050000 -5.555713
v -8.314690 0.050000 -5.555713
v -7.071059 -0.050000 -7.071076
v -7.071059 0.050000 -7.071076
v -5.555691 -0.050000 -8.314704
v -5.555691 0.050000 -8.314704
v -3.826821 -0.050000 -9.238801
v -3.826821 0.050000 -9.238801
v -1.950888 -0.050000 -9.807856
v -1.950888 0.050000 -9.807856
vt 0.758747 0.544079
vt 0.378458 0.544079
vt 0.378458 0.506804
vt 0.758747 0.506804
vt 0.378458 0.470246
vt 0.758747 0.470246
vt 0.378458 0.435808
vt 0.758747 0.435808
vt 0.378458 0.404815
vt 0.758747 0.404815
vt 0.378458 0.378458
vt 1.000000 0.267610
vt 1.000000 0.647899
vt 0.969007 0.647899
vt 0.969007 0.267610
vt 0.934570 0.647899
vt 0.934570 0.267610
vt 0.898011 0.647899
vt 0.898011 0.267610
vt 0.860736 0.647899
vt 0.860736 0.267610
vt 0.824178 0.267610
vt 0.824178 0.647899
vt 0.789740 0.647899
vt 0.789740 0.267610
vt 0.758747 0.267610
vt 0.758747 0.940035
vt 0.378458 0.940035
vt 0.378458 0.909043
vt 0.758747 0.909043
vt 0.378458 0.874605
vt 0.758747 0.874605
vt 0.758747 0.838046
vt 0.378458 0.838046
vt 0.758747 0.800772
vt 0.378458 0.800772
vt 0.378458 0.764213
vt 0.758747 0.764213
vt 0.378458 0.729775
vt 0.758747 0.729775
vt 0.758747 0.698783
vt 0.378458 0.698783
vt 0.758747 0.672425
vt 0.378458 0.000000
vt 0.758747 0.000000
vt 0.378458 0.030993
vt 0.758747 0.030993
vt 0.758747 0.065430
vt 0.378458 0.065430
vt 0.758747 0.101989
vt 0.378458 0.101989
vt 0.758747 0.139264
vt 0.378458 0.139264
vt 0.758747 0.175823
vt 0.378458 0.175823
vt 0.758747 0.210260
vt 0.378458 0.210260
vt 0.378458 0.241253
vt 0.758747 0.241253
vt 0.378458 0.267610
vt 0.378458 0.672425
vt 0.758747 0.646068
vt 0.378458 0.646068
vt 0.758747 0.615075
vt 0.207866 0.378458
vt 0.170592 0.378458
vt 0.021537 0.278863
vt 0.758747 0.580637
vt 0.378458 0.580637
vt 0.378458 0.615075
vt 0.207866 0.756916
vt 0.170592 0.756916
vt 0.244425 0.749644
vt 0.758747 0.378458
vt 0.068602 0.420703
vt 0.099595 0.399994
vt 0.278862 0.021536
vt 0.207866 0.000000
vt 0.007272 0.244425
vt 0.000000 0.207867
vt 0.134033 0.371186
vt 0.099596 0.356922
vt 0.336213 0.688313
vt 0.309855 0.420703
vt 0.371186 0.622883
vt 0.244425 0.385730
vt 0.134033 0.385730
vt 0.356921 0.099595
vt 0.371186 0.134033
vt 0.378458 0.170592
vt 0.068603 0.336213
vt 0.007272 0.134033
vt 0.021536 0.099596
vt 0.042245 0.068603
vt 0.068602 0.042245
vt 0.134033 0.007272
vt 0.170591 0.000000
vt 0.007272 0.622883
vt 0.000000 0.586324
vt 0.007272 0.512491
vt 0.336213 0.068603
vt 0.309855 0.042245
vt 0.244425 0.007272
vt 0.378458 0.207866
vt 0.278862 0.356921
vt 0.336213 0.309855
vt 0.309855 0.336213
vt 0.356921 0.278863
vt 0.371186 0.244425
vt 0.244425 0.371186
vt 0.758747 0.647899
vt 0.134033 0.749644
vt 0.099596 0.735379
vt 0.068603 0.714671
vt 0.042245 0.688313
vt 0.021536 0.657320
vt 0.000000 0.170592
vt 0.021536 0.478053
vt 0.042245 0.447061
vt 0.378458 0.549049
vt 0.378458 0.586324
vt 0.000000 0.549050
vt 0.278863 0.399994
vt 0.278862 0.735379
vt 0.371186 0.512491
vt 0.336213 0.447060
vt 0.356922 0.478053
vt 0.309855 0.714671
vt 0.042245 0.309856
vt 0.356921 0.657320
vt 0.099595 0.021536
vn 0.098017 0.000000 -0.995185
vn 0.290285 0.000000 -0.956940
vn 0.471397 0.000000 -0.881921
vn 0.634393 0.000000 -0.773010
vn 0.773010 0.000000 -0.634394
vn 0.881921 0.000000 -0.471397
vn 0.956940 0.000000 -0.290285
vn 0.995185 0.000000 -0.098017
vn 0.995185 0.000000 0.098017
vn 0.956940 0.000000 0.290285
vn 0.881921 0.000000 0.471397
vn 0.773011 0.000000 0.634393
vn 0.634393 0.000000 0.773010
vn 0.471397 0.000000 0.881921
vn 0.290285 0.000000 0.956940
vn 0.098017 0.000000 0.995185
vn -0.098017 0.000000 0.995185
vn -0.290285 0.000000 0.956940
vn -0.471397 0.000000 0.881921
vn -0.634394 0.000000 0.773010
vn -0.773011 0.000000 0.634393
vn -0.881922 0.000000 0.471396
vn -0.956941 0.000000 0.290284
vn -0.995185 0.000000 0.098016
vn -0.995185 0.000000 -0.098018
vn -0.956940 0.000000 -0.290286
vn -0.881921 0.000000 -0.471397
vn -0.773010 0.000000 -0.634394
vn -0.634392 0.000000 -0.773011
vn -0.471395 0.000000 -0.881922
vn 0.000000 1.000000 0.000000
vn -0.098017 0.000000 -0.995185
vn -0.290284 0.000000 -0.956941
vn 0.000000 -1.000000 0.000000
vn 0.634394 0.000000 -0.773010
vn 0.773011 0.000000 -0.634393
vn 0.881922 0.000000 0.471396
vn -0.471396 0.000000 0.881921
vn 0.634393 0.000000 0.773011
vn 0.471396 0.000000 0.881921
vn -0.098018 0.000000 0.995185
vn -0.290286 0.000000 0.956940
vn -0.634393 0.000000 -0.773011
vn -0.773009 0.000000 -0.634395
vn 0.290284 0.000000 0.956941
vn 0.773010 0.000000 0.634394
vn -0.098016 0.000000 -0.995185
vn -0.290282 0.000000 -0.956941
vn -0.773011 0.000000 0.634392
s off
f 1/1/1 2/2/1 4/3/1
f 3/4/2 4/3/2 6/5/2
f 5/6/3 6/5/3 8/7/3
f 7/8/4 8/7/4 10/9/4
f 9/10/5 10/9/5 12/11/5
f 11/12/6 12/13/6 14/14/6
f 13/15/7 14/14/7 16/16/7
f 15/17/8 16/16/8 18/18/8
f 17/19/9 18/18/9 20/20/9
f 19/21/10 20/20/10 21/22/10
f 21/22/11 22/23/11 24/24/11
f 23/25/12 24/24/12 25/26/12
f 25/27/13 26/28/13 28/29/13
f 27/30/14 28/29/14 30/31/14
f 29/32/15 30/31/15 31/33/15
f 31/33/16 32/34/16 33/35/16
f 33/35/17 34/36/17 36/37/17
f 35/38/18 36/37/18 38/39/18
f 37/40/19 38/39/19 39/41/19
f 39/41/20 40/42/20 41/43/20
f 41/44/21 42/45/21 43/46/21
f 43/46/22 44/47/22 46/48/22
f 45/49/23 46/48/23 48/50/23
f 47/51/24 48/50/24 50/52/24
f 49/53/25 50/52/25 52/54/25
f 51/55/26 52/54/26 54/56/26
f 53/57/27 54/56/27 55/58/27
f 55/58/28 56/59/28 57/60/28
f 57/43/29 58/61/29 59/62/29
f 59/62/30 60/63/30 61/64/30
f 6/65/31 4/66/31 58/67/31
f 63/68/32 64/69/32 2/2/32
f 61/64/33 62/70/33 64/69/33
f 1/71/34 3/72/34 63/73/34
f 3/4/1 1/1/1 4/3/1
f 5/6/2 3/4/2 6/5/2
f 7/8/3 5/6/3 8/7/3
f 9/10/35 7/8/35 10/9/35
f 11/74/36 9/10/36 12/11/36
f 13/15/6 11/12/6 14/14/6
f 15/17/7 13/15/7 16/16/7
f 17/19/8 15/17/8 18/18/8
f 19/21/9 17/19/9 20/20/9
f 54/56/27 56/59/27 55/58/27
f 23/25/37 21/22/37 24/24/37
f 38/39/38 40/42/38 39/41/38
f 27/30/39 25/27/39 28/29/39
f 29/32/40 27/30/40 30/31/40
f 27/75/34 29/76/34 63/73/34
f 32/77/31 6/65/31 36/78/31
f 35/38/41 33/35/41 36/37/41
f 37/40/42 35/38/42 38/39/42
f 58/61/43 60/63/43 59/62/43
f 58/67/31 56/79/31 54/80/31
f 4/66/31 2/81/31 64/82/31
f 45/49/22 43/46/22 46/48/22
f 47/51/23 45/49/23 48/50/23
f 49/53/24 47/51/24 50/52/24
f 51/55/25 49/53/25 52/54/25
f 53/57/26 51/55/26 54/56/26
f 57/83/34 41/84/34 53/85/34
f 32/34/16 34/36/16 33/35/16
f 56/59/44 58/26/44 57/60/44
f 30/31/45 32/34/45 31/33/45
f 37/86/34 41/84/34 31/87/34
f 26/88/31 24/89/31 22/90/31
f 4/66/31 64/82/31 58/67/31
f 64/82/31 62/91/31 58/67/31
f 6/65/31 58/67/31 54/80/31
f 60/63/30 62/70/30 61/64/30
f 6/65/31 54/80/31 50/92/31
f 20/20/10 22/23/10 21/22/10
f 50/92/31 48/93/31 6/65/31
f 48/93/31 46/94/31 6/65/31
f 46/94/31 44/95/31 6/65/31
f 6/65/31 44/95/31 40/96/31
f 40/42/20 42/61/20 41/43/20
f 40/96/31 38/97/31 36/78/31
f 6/65/31 40/96/31 36/78/31
f 15/98/34 17/99/34 21/100/34
f 28/101/31 32/77/31 30/102/31
f 32/77/31 28/101/31 22/90/31
f 36/78/31 34/103/31 32/77/31
f 28/101/31 26/88/31 22/90/31
f 20/104/31 32/77/31 22/90/31
f 10/105/31 14/106/31 12/107/31
f 10/105/31 16/108/31 14/106/31
f 18/109/31 32/77/31 20/104/31
f 16/108/31 32/77/31 18/109/31
f 10/105/31 32/77/31 16/108/31
f 8/110/31 6/65/31 10/105/31
f 24/24/46 26/111/46 25/26/46
f 1/1/47 63/68/47 2/2/47
f 63/68/48 61/64/48 64/69/48
f 3/72/34 5/112/34 63/73/34
f 5/112/34 7/113/34 63/73/34
f 7/113/34 9/114/34 63/73/34
f 9/114/34 11/115/34 63/73/34
f 11/115/34 13/116/34 63/73/34
f 63/73/34 13/116/34 21/100/34
f 54/80/31 52/117/31 50/92/31
f 13/116/34 15/98/34 21/100/34
f 6/65/31 32/77/31 10/105/31
f 21/100/34 23/118/34 63/73/34
f 23/118/34 25/119/34 63/73/34
f 53/85/34 49/120/34 51/121/34
f 25/119/34 27/75/34 63/73/34
f 42/45/49 44/47/49 43/46/49
f 35/65/34 31/87/34 33/66/34
f 29/76/34 31/87/34 41/84/34
f 17/99/34 19/122/34 21/100/34
f 41/84/34 37/86/34 39/123/34
f 35/65/34 37/86/34 31/87/34
f 61/124/34 63/73/34 29/76/34
f 47/125/34 43/126/34 45/127/34
f 41/84/34 61/124/34 29/76/34
f 49/120/34 43/126/34 47/125/34
f 53/85/34 43/126/34 49/120/34
f 59/128/34 61/124/34 57/83/34
f 62/91/31 60/129/31 58/67/31
f 55/130/34 57/83/34 53/85/34
f 61/124/34 41/84/34 57/83/34
f 43/126/34 53/85/34 41/84/34
f 44/95/31 42/131/31 40/96/31
